<svg xmlns="http://www.w3.org/2000/svg" width="1579" height="1273" viewBox="0 0 1579 1273"><path transform="translate(1324.7637227601306 431.4) scale(1) translate(-542 -327) rotate(136.75915759540098)" d="M 69 0 L 669.1941262432651 0" fill="none" stroke="#000000" stroke-width="7"/><polygon transform="translate(1324.7637227601306 431.4) scale(1) translate(-542 -327) rotate(136.75915759540098) translate(700.0747118628883 0) rotate(0)" points="-30.880585619623186,0 -34.31176179958132,11.437253933193773 0,0 -34.31176179958132,-11.437253933193773" fill="undefined" stroke="none" stroke-width="7"/><rect transform="translate(1324.7637227601306 431.4) scale(1) translate(-810.8800033128871 -74.14394248213821) rotate(316.759157595401) translate(0 -16) translate(0 0) translate(-82.96875 0)" x="0" y="0" width="165.9375" height="32" rx="8" ry="8" fill="#ffffff" stroke="none"/><text xml:space="preserve" transform="translate(1324.7637227601306 431.4) scale(1) translate(-810.8800033128871 -74.14394248213821) rotate(316.759157595401) translate(0 -16) translate(0 0) translate(-82.96875 0)" x="8" y="20.5" font-family="sans-serif" font-size="16" font-weight="normal" text-anchor="left" fill="#000000">HAS_WITHDRAWAL</text><path transform="translate(1324.7637227601306 431.4) scale(1) translate(-542 -327) rotate(89.10437119829867)" d="M 69 0 L 427.0511625118746 0" fill="none" stroke="#000000" stroke-width="7"/><polygon transform="translate(1324.7637227601306 431.4) scale(1) translate(-542 -327) rotate(89.10437119829867) translate(457.9317481314978 0) rotate(0)" points="-30.880585619623186,0 -34.31176179958132,11.437253933193773 0,0 -34.31176179958132,-11.437253933193773" fill="undefined" stroke="none" stroke-width="7"/><rect transform="translate(1324.7637227601306 431.4) scale(1) translate(-538.1231034893614 -79.00472054736332) rotate(89.10437119829867) translate(0 -16) translate(0 0) translate(-64.015625 0)" x="0" y="0" width="128.03125" height="32" rx="8" ry="8" fill="#ffffff" stroke="none"/><text xml:space="preserve" transform="translate(1324.7637227601306 431.4) scale(1) translate(-538.1231034893614 -79.00472054736332) rotate(89.10437119829867) translate(0 -16) translate(0 0) translate(-64.015625 0)" x="8" y="20.5" font-family="sans-serif" font-size="16" font-weight="normal" text-anchor="left" fill="#000000">HAS_DEPOSIT</text><path transform="translate(1324.7637227601306 431.4) scale(1) translate(-231.11921885593875 458.8520744850634) rotate(-40.554913500917046)" d="M 69 0 L 298.4492326042034 0" fill="none" stroke="#000000" stroke-width="7"/><polygon transform="translate(1324.7637227601306 431.4) scale(1) translate(-231.11921885593875 458.8520744850634) rotate(-40.554913500917046) translate(329.32981822382663 0) rotate(0)" points="-30.880585619623186,0 -34.31176179958132,11.437253933193773 0,0 -34.31176179958132,-11.437253933193773" fill="undefined" stroke="none" stroke-width="7"/><rect transform="translate(1324.7637227601306 431.4) scale(1) translate(-91.52834719060431 339.39863927675043) rotate(-40.554913500917046) translate(0 -16) translate(0 0) translate(-69.796875 0)" x="0" y="0" width="139.59375" height="32" rx="8" ry="8" fill="#ffffff" stroke="none"/><text xml:space="preserve" transform="translate(1324.7637227601306 431.4) scale(1) translate(-91.52834719060431 339.39863927675043) rotate(-40.554913500917046) translate(0 -16) translate(0 0) translate(-69.796875 0)" x="8" y="20.5" font-family="sans-serif" font-size="16" font-weight="normal" text-anchor="left" fill="#000000">HAS_RECEIVER</text><path transform="translate(1324.7637227601306 431.4) scale(1) translate(-542 -327) rotate(40.654481277865756)" d="M 69 0 L 708.8234662887006 0" fill="none" stroke="#000000" stroke-width="7"/><polygon transform="translate(1324.7637227601306 431.4) scale(1) translate(-542 -327) rotate(40.654481277865756) translate(739.7040519083238 0) rotate(0)" points="-30.880585619623186,0 -34.31176179958132,11.437253933193773 0,0 -34.31176179958132,-11.437253933193773" fill="undefined" stroke="none" stroke-width="7"/><rect transform="translate(1324.7637227601306 431.4) scale(1) translate(-246.95127457451048 -73.62560152585175) rotate(40.654481277865756) translate(0 -16) translate(0 0) translate(-69.796875 0)" x="0" y="0" width="139.59375" height="32" rx="8" ry="8" fill="#ffffff" stroke="none"/><text xml:space="preserve" transform="translate(1324.7637227601306 431.4) scale(1) translate(-246.95127457451048 -73.62560152585175) rotate(40.654481277865756) translate(0 -16) translate(0 0) translate(-69.796875 0)" x="8" y="20.5" font-family="sans-serif" font-size="16" font-weight="normal" text-anchor="left" fill="#000000">HAS_RECEIVER</text><path transform="translate(1324.7637227601306 431.4) scale(1) translate(-533.7635114679251 199.86737177925266) rotate(90)" d="M 69 0 L 418.0888197919983 0" fill="none" stroke="#000000" stroke-width="7"/><polygon transform="translate(1324.7637227601306 431.4) scale(1) translate(-533.7635114679251 199.86737177925266) rotate(90) translate(448.96940541162144 0) rotate(0)" points="-30.880585619623186,0 -34.31176179958132,11.437253933193773 0,0 -34.31176179958132,-11.437253933193773" fill="undefined" stroke="none" stroke-width="7"/><rect transform="translate(1324.7637227601306 431.4) scale(1) translate(-533.7635114679251 443.4117816752518) rotate(270) translate(0 -16) translate(0 0) translate(-86.234375 0)" x="0" y="0" width="172.46875" height="32" rx="8" ry="8" fill="#ffffff" stroke="none"/><text xml:space="preserve" transform="translate(1324.7637227601306 431.4) scale(1) translate(-533.7635114679251 443.4117816752518) rotate(270) translate(0 -16) translate(0 0) translate(-86.234375 0)" x="8" y="20.5" font-family="sans-serif" font-size="16" font-weight="normal" text-anchor="left" fill="#000000">HAS_TRANSACTION</text><path transform="translate(1324.7637227601306 431.4) scale(1) translate(-1102.2559102601306 199.86737177925266) rotate(42.33753144494119)" d="M 69 0 L 669.1941262432651 0" fill="none" stroke="#000000" stroke-width="7"/><polygon transform="translate(1324.7637227601306 431.4) scale(1) translate(-1102.2559102601306 199.86737177925266) rotate(42.33753144494119) translate(700.0747118628883 0) rotate(0)" points="-30.880585619623186,0 -34.31176179958132,11.437253933193773 0,0 -34.31176179958132,-11.437253933193773" fill="undefined" stroke="none" stroke-width="7"/><rect transform="translate(1324.7637227601306 431.4) scale(1) translate(-829.4230221614987 448.45308572270073) rotate(42.33753144494119) translate(0 -16) translate(0 0) translate(-86.234375 0)" x="0" y="0" width="172.46875" height="32" rx="8" ry="8" fill="#ffffff" stroke="none"/><text xml:space="preserve" transform="translate(1324.7637227601306 431.4) scale(1) translate(-829.4230221614987 448.45308572270073) rotate(42.33753144494119) translate(0 -16) translate(0 0) translate(-86.234375 0)" x="8" y="20.5" font-family="sans-serif" font-size="16" font-weight="normal" text-anchor="left" fill="#000000">HAS_TRANSACTION</text><path transform="translate(1324.7637227601306 431.4) scale(1) translate(71.52507375604758 199.86737177925266) rotate(180)" d="M 69 0 L 505.4079996043496 0" fill="none" stroke="#000000" stroke-width="7"/><polygon transform="translate(1324.7637227601306 431.4) scale(1) translate(71.52507375604758 199.86737177925266) rotate(180) translate(536.2885852239727 0) rotate(0)" points="-30.880585619623186,0 -34.31176179958132,11.437253933193773 0,0 -34.31176179958132,-11.437253933193773" fill="undefined" stroke="none" stroke-width="7"/><rect transform="translate(1324.7637227601306 431.4) scale(1) translate(-215.67892604612723 199.8673717792527) rotate(360) translate(0 -16) translate(0 0) translate(-64.015625 0)" x="0" y="0" width="128.03125" height="32" rx="8" ry="8" fill="#ffffff" stroke="none"/><text xml:space="preserve" transform="translate(1324.7637227601306 431.4) scale(1) translate(-215.67892604612723 199.8673717792527) rotate(360) translate(0 -16) translate(0 0) translate(-64.015625 0)" x="8" y="20.5" font-family="sans-serif" font-size="16" font-weight="normal" text-anchor="left" fill="#000000">HAS_DEPOSIT</text><path transform="translate(1324.7637227601306 431.4) scale(1) translate(-231.11921885593875 458.8520744850634) rotate(139.44508649908298)" d="M 69 0 L 298.4492326042034 0" fill="none" stroke="#000000" stroke-width="7"/><polygon transform="translate(1324.7637227601306 431.4) scale(1) translate(-231.11921885593875 458.8520744850634) rotate(139.44508649908298) translate(329.32981822382663 0) rotate(0)" points="-30.880585619623186,0 -34.31176179958132,11.437253933193773 0,0 -34.31176179958132,-11.437253933193773" fill="undefined" stroke="none" stroke-width="7"/><rect transform="translate(1324.7637227601306 431.4) scale(1) translate(-370.7100905212732 578.3055096933764) rotate(319.44508649908295) translate(0 -16) translate(0 0) translate(-86.234375 0)" x="0" y="0" width="172.46875" height="32" rx="8" ry="8" fill="#ffffff" stroke="none"/><text xml:space="preserve" transform="translate(1324.7637227601306 431.4) scale(1) translate(-370.7100905212732 578.3055096933764) rotate(319.44508649908295) translate(0 -16) translate(0 0) translate(-86.234375 0)" x="8" y="20.5" font-family="sans-serif" font-size="16" font-weight="normal" text-anchor="left" fill="#000000">HAS_TRANSACTION</text><circle transform="translate(1324.7637227601306 431.4) scale(1)" cx="-542" cy="-327" r="62" fill="#ffffff" stroke="#000000" stroke-width="4"/><rect transform="translate(1324.7637227601306 431.4) scale(1) translate(-542 -327) scale(0.7401868241140481) translate(0 -27) translate(0 0) translate(-69.2265625 0)" x="0" y="0" width="138.453125" height="54" rx="27" ry="27" fill="#ffffff" stroke="#000000"/><text xml:space="preserve" transform="translate(1324.7637227601306 431.4) scale(1) translate(-542 -327) scale(0.7401868241140481) translate(0 -27) translate(0 0) translate(-69.2265625 0)" x="27" y="37.5" font-family="sans-serif" font-size="40" font-weight="normal" text-anchor="undefined" fill="#000000">User</text><rect transform="translate(1324.7637227601306 431.4) scale(1) translate(-542 -327) translate(4.0413344371862654e-15 -104.4) translate(0 0) translate(-64.02734375 0)" x="0" y="0" width="128.0546875" height="38.4" rx="0" ry="0" fill="white" stroke="none"/><text xml:space="preserve" transform="translate(1324.7637227601306 431.4) scale(1) translate(-542 -327) translate(4.0413344371862654e-15 -104.4) translate(0 0) translate(-64.02734375 0)" x="77.3671875" y="14.1" font-family="sans-serif" font-size="16" font-weight="normal" text-anchor="end" fill="#000000">email:</text><text xml:space="preserve" transform="translate(1324.7637227601306 431.4) scale(1) translate(-542 -327) translate(4.0413344371862654e-15 -104.4) translate(0 0) translate(-64.02734375 0)" x="81.8125" y="14.1" font-family="sans-serif" font-size="16" font-weight="normal" text-anchor="start" fill="#000000">String</text><text xml:space="preserve" transform="translate(1324.7637227601306 431.4) scale(1) translate(-542 -327) translate(4.0413344371862654e-15 -104.4) translate(0 0) translate(-64.02734375 0)" x="77.3671875" y="33.3" font-family="sans-serif" font-size="16" font-weight="normal" text-anchor="end" fill="#000000">password:</text><text xml:space="preserve" transform="translate(1324.7637227601306 431.4) scale(1) translate(-542 -327) translate(4.0413344371862654e-15 -104.4) translate(0 0) translate(-64.02734375 0)" x="81.8125" y="33.3" font-family="sans-serif" font-size="16" font-weight="normal" text-anchor="start" fill="#000000">String</text><circle transform="translate(1324.7637227601306 431.4) scale(1)" cx="-231.11921885593875" cy="458.8520744850634" r="62" fill="#ffffff" stroke="#000000" stroke-width="4"/><rect transform="translate(1324.7637227601306 431.4) scale(1) translate(-231.11921885593875 458.8520744850634) scale(0.7101819934860467) translate(0 -27) translate(0 0) translate(-72.5859375 0)" x="0" y="0" width="145.171875" height="54" rx="27" ry="27" fill="#ffffff" stroke="#000000"/><text xml:space="preserve" transform="translate(1324.7637227601306 431.4) scale(1) translate(-231.11921885593875 458.8520744850634) scale(0.7101819934860467) translate(0 -27) translate(0 0) translate(-72.5859375 0)" x="27" y="37.5" font-family="sans-serif" font-size="40" font-weight="normal" text-anchor="undefined" fill="#000000">Bank</text><rect transform="translate(1324.7637227601306 431.4) scale(1) translate(-231.11921885593875 458.8520744850634) translate(-46.66904755831213 -65.86904755831213) translate(0 0) translate(-116.5 0)" x="0" y="0" width="116.5" height="19.2" rx="0" ry="0" fill="white" stroke="none"/><text xml:space="preserve" transform="translate(1324.7637227601306 431.4) scale(1) translate(-231.11921885593875 458.8520744850634) translate(-46.66904755831213 -65.86904755831213) translate(0 0) translate(-116.5 0)" x="65.8125" y="14.1" font-family="sans-serif" font-size="16" font-weight="normal" text-anchor="end" fill="#000000">address:</text><text xml:space="preserve" transform="translate(1324.7637227601306 431.4) scale(1) translate(-231.11921885593875 458.8520744850634) translate(-46.66904755831213 -65.86904755831213) translate(0 0) translate(-116.5 0)" x="70.2578125" y="14.1" font-family="sans-serif" font-size="16" font-weight="normal" text-anchor="start" fill="#000000">String</text><circle transform="translate(1324.7637227601306 431.4) scale(1)" cx="-1102.2559102601306" cy="199.86737177925266" r="62" fill="#ffffff" stroke="#000000" stroke-width="4"/><rect transform="translate(1324.7637227601306 431.4) scale(1) translate(-1102.2559102601306 199.86737177925266) scale(0.42709068636813174) translate(0 -27) translate(0 0) translate(-125.916015625 0)" x="0" y="0" width="251.83203125" height="54" rx="27" ry="27" fill="#ffffff" stroke="#000000"/><text xml:space="preserve" transform="translate(1324.7637227601306 431.4) scale(1) translate(-1102.2559102601306 199.86737177925266) scale(0.42709068636813174) translate(0 -27) translate(0 0) translate(-125.916015625 0)" x="27" y="37.5" font-family="sans-serif" font-size="40" font-weight="normal" text-anchor="undefined" fill="#000000">Withdrawal</text><rect transform="translate(1324.7637227601306 431.4) scale(1) translate(-1102.2559102601306 199.86737177925266) translate(-66 -19.199999999999992) translate(0 0) translate(-156.5078125 0)" x="0" y="0" width="156.5078125" height="38.4" rx="0" ry="0" fill="white" stroke="none"/><text xml:space="preserve" transform="translate(1324.7637227601306 431.4) scale(1) translate(-1102.2559102601306 199.86737177925266) translate(-66 -19.199999999999992) translate(0 0) translate(-156.5078125 0)" x="77.375" y="14.1" font-family="sans-serif" font-size="16" font-weight="normal" text-anchor="end" fill="#000000">amount:</text><text xml:space="preserve" transform="translate(1324.7637227601306 431.4) scale(1) translate(-1102.2559102601306 199.86737177925266) translate(-66 -19.199999999999992) translate(0 0) translate(-156.5078125 0)" x="81.8203125" y="14.1" font-family="sans-serif" font-size="16" font-weight="normal" text-anchor="start" fill="#000000">Int</text><text xml:space="preserve" transform="translate(1324.7637227601306 431.4) scale(1) translate(-1102.2559102601306 199.86737177925266) translate(-66 -19.199999999999992) translate(0 0) translate(-156.5078125 0)" x="77.375" y="33.3" font-family="sans-serif" font-size="16" font-weight="normal" text-anchor="end" fill="#000000">createdAt:</text><text xml:space="preserve" transform="translate(1324.7637227601306 431.4) scale(1) translate(-1102.2559102601306 199.86737177925266) translate(-66 -19.199999999999992) translate(0 0) translate(-156.5078125 0)" x="81.8203125" y="33.3" font-family="sans-serif" font-size="16" font-weight="normal" text-anchor="start" fill="#000000">DateTIme</text><circle transform="translate(1324.7637227601306 431.4) scale(1)" cx="-533.7635114679251" cy="199.86737177925266" r="62" fill="#ffffff" stroke="#000000" stroke-width="4"/><rect transform="translate(1324.7637227601306 431.4) scale(1) translate(-533.7635114679251 199.86737177925266) scale(0.5579111968366571) translate(0 -27) translate(0 0) translate(-94.8125 0)" x="0" y="0" width="189.625" height="54" rx="27" ry="27" fill="#ffffff" stroke="#000000"/><text xml:space="preserve" transform="translate(1324.7637227601306 431.4) scale(1) translate(-533.7635114679251 199.86737177925266) scale(0.5579111968366571) translate(0 -27) translate(0 0) translate(-94.8125 0)" x="27" y="37.5" font-family="sans-serif" font-size="40" font-weight="normal" text-anchor="undefined" fill="#000000">Deposit</text><rect transform="translate(1324.7637227601306 431.4) scale(1) translate(-533.7635114679251 199.86737177925266) translate(-66 -19.199999999999992) translate(0 0) translate(-156.5078125 0)" x="0" y="0" width="156.5078125" height="38.4" rx="0" ry="0" fill="white" stroke="none"/><text xml:space="preserve" transform="translate(1324.7637227601306 431.4) scale(1) translate(-533.7635114679251 199.86737177925266) translate(-66 -19.199999999999992) translate(0 0) translate(-156.5078125 0)" x="77.375" y="14.1" font-family="sans-serif" font-size="16" font-weight="normal" text-anchor="end" fill="#000000">amount:</text><text xml:space="preserve" transform="translate(1324.7637227601306 431.4) scale(1) translate(-533.7635114679251 199.86737177925266) translate(-66 -19.199999999999992) translate(0 0) translate(-156.5078125 0)" x="81.8203125" y="14.1" font-family="sans-serif" font-size="16" font-weight="normal" text-anchor="start" fill="#000000">Int</text><text xml:space="preserve" transform="translate(1324.7637227601306 431.4) scale(1) translate(-533.7635114679251 199.86737177925266) translate(-66 -19.199999999999992) translate(0 0) translate(-156.5078125 0)" x="77.375" y="33.3" font-family="sans-serif" font-size="16" font-weight="normal" text-anchor="end" fill="#000000">createdAt:</text><text xml:space="preserve" transform="translate(1324.7637227601306 431.4) scale(1) translate(-533.7635114679251 199.86737177925266) translate(-66 -19.199999999999992) translate(0 0) translate(-156.5078125 0)" x="81.8203125" y="33.3" font-family="sans-serif" font-size="16" font-weight="normal" text-anchor="start" fill="#000000">DateTIme</text><circle transform="translate(1324.7637227601306 431.4) scale(1)" cx="71.52507375604758" cy="199.86737177925266" r="62" fill="#ffffff" stroke="#000000" stroke-width="4"/><rect transform="translate(1324.7637227601306 431.4) scale(1) translate(71.52507375604758 199.86737177925266) scale(0.5031871935588573) translate(0 -27) translate(0 0) translate(-105.916015625 0)" x="0" y="0" width="211.83203125" height="54" rx="27" ry="27" fill="#ffffff" stroke="#000000"/><text xml:space="preserve" transform="translate(1324.7637227601306 431.4) scale(1) translate(71.52507375604758 199.86737177925266) scale(0.5031871935588573) translate(0 -27) translate(0 0) translate(-105.916015625 0)" x="27" y="37.5" font-family="sans-serif" font-size="40" font-weight="normal" text-anchor="undefined" fill="#000000">Receiver</text><rect transform="translate(1324.7637227601306 431.4) scale(1) translate(71.52507375604758 199.86737177925266) translate(66 -9.6) translate(0 0) translate(0 0)" x="0" y="0" width="116.5" height="19.2" rx="0" ry="0" fill="white" stroke="none"/><text xml:space="preserve" transform="translate(1324.7637227601306 431.4) scale(1) translate(71.52507375604758 199.86737177925266) translate(66 -9.6) translate(0 0) translate(0 0)" x="65.8125" y="14.1" font-family="sans-serif" font-size="16" font-weight="normal" text-anchor="end" fill="#000000">address:</text><text xml:space="preserve" transform="translate(1324.7637227601306 431.4) scale(1) translate(71.52507375604758 199.86737177925266) translate(66 -9.6) translate(0 0) translate(0 0)" x="70.2578125" y="14.1" font-family="sans-serif" font-size="16" font-weight="normal" text-anchor="start" fill="#000000">String</text><circle transform="translate(1324.7637227601306 431.4) scale(1)" cx="-533.7635114679251" cy="717.836777190874" r="62" fill="#ffffff" stroke="#000000" stroke-width="4"/><rect transform="translate(1324.7637227601306 431.4) scale(1) translate(-533.7635114679251 717.836777190874) scale(0.41195829307039833) translate(0 -27) translate(0 0) translate(-130.75 0)" x="0" y="0" width="261.5" height="54" rx="27" ry="27" fill="#ffffff" stroke="#000000"/><text xml:space="preserve" transform="translate(1324.7637227601306 431.4) scale(1) translate(-533.7635114679251 717.836777190874) scale(0.41195829307039833) translate(0 -27) translate(0 0) translate(-130.75 0)" x="27" y="37.5" font-family="sans-serif" font-size="40" font-weight="normal" text-anchor="undefined" fill="#000000">Transaction</text><rect transform="translate(1324.7637227601306 431.4) scale(1) translate(-533.7635114679251 717.836777190874) translate(4.0413344371862654e-15 66) translate(0 0) translate(-60.9140625 0)" x="0" y="0" width="121.828125" height="57.599999999999994" rx="0" ry="0" fill="white" stroke="none"/><text xml:space="preserve" transform="translate(1324.7637227601306 431.4) scale(1) translate(-533.7635114679251 717.836777190874) translate(4.0413344371862654e-15 66) translate(0 0) translate(-60.9140625 0)" x="71.140625" y="14.1" font-family="sans-serif" font-size="16" font-weight="normal" text-anchor="end" fill="#000000">hash:</text><text xml:space="preserve" transform="translate(1324.7637227601306 431.4) scale(1) translate(-533.7635114679251 717.836777190874) translate(4.0413344371862654e-15 66) translate(0 0) translate(-60.9140625 0)" x="75.5859375" y="14.1" font-family="sans-serif" font-size="16" font-weight="normal" text-anchor="start" fill="#000000">String</text><text xml:space="preserve" transform="translate(1324.7637227601306 431.4) scale(1) translate(-533.7635114679251 717.836777190874) translate(4.0413344371862654e-15 66) translate(0 0) translate(-60.9140625 0)" x="71.140625" y="33.3" font-family="sans-serif" font-size="16" font-weight="normal" text-anchor="end" fill="#000000">gas:</text><text xml:space="preserve" transform="translate(1324.7637227601306 431.4) scale(1) translate(-533.7635114679251 717.836777190874) translate(4.0413344371862654e-15 66) translate(0 0) translate(-60.9140625 0)" x="75.5859375" y="33.3" font-family="sans-serif" font-size="16" font-weight="normal" text-anchor="start" fill="#000000">Int</text><text xml:space="preserve" transform="translate(1324.7637227601306 431.4) scale(1) translate(-533.7635114679251 717.836777190874) translate(4.0413344371862654e-15 66) translate(0 0) translate(-60.9140625 0)" x="71.140625" y="52.5" font-family="sans-serif" font-size="16" font-weight="normal" text-anchor="end" fill="#000000">gasPrice:</text><text xml:space="preserve" transform="translate(1324.7637227601306 431.4) scale(1) translate(-533.7635114679251 717.836777190874) translate(4.0413344371862654e-15 66) translate(0 0) translate(-60.9140625 0)" x="75.5859375" y="52.5" font-family="sans-serif" font-size="16" font-weight="normal" text-anchor="start" fill="#000000">Int</text></svg>